<svg xmlns="http://www.w3.org/2000/svg"  viewBox="0 0 48 48" width="48px" height="48px"><path fill="#c87e0e" d="M23.06,14.047l3.956-2.496c1.156-0.729,0.484-2.52-0.867-2.308l-5.89,0.925	c-2.334,0.366-3.844,2.665-3.253,4.952l2.039,5.978c0.392,1.149,1.36,2.006,2.548,2.255l6.217,1.305l0.116-1.587	c0-1.573-1.563-3.615-3.643-3.92h-0.028L23.06,14.047z"/><path fill="#df9410" d="M20.272,14.707l6.523-4.115c0.581-0.366,0.243-1.265-0.435-1.159l-8.889,1.395	c-2.334,0.366-3.844,2.665-3.253,4.952l2.039,5.978c0.392,1.149,1.36,2.006,2.548,2.255l6.217,1.305l0.116-1.587	c0-1.573-1.563-3.615-3.643-3.92h-0.028L20.272,14.707z"/><radialGradient id="m_E4AzuPRwYZLGjtI2KPua" cx="6.822" cy="26.035" r="12.785" gradientTransform="matrix(-.9226 .3866 -.3981 -.9545 23.48 48.288)" gradientUnits="userSpaceOnUse"><stop offset=".238" stop-color="#ffe16e"/><stop offset=".596" stop-color="#ffd226"/><stop offset=".749" stop-color="#fdcd23"/><stop offset=".952" stop-color="#f0af13"/></radialGradient><path fill="url(#m_E4AzuPRwYZLGjtI2KPua)" d="M17.213,15.123l9.748-6.165l-12.745,2.005c-2.497,0.393-4.112,2.858-3.48,5.31l2.181,6.41	c0.419,1.232,1.455,2.151,2.726,2.419l6.651,1.4l0.125-1.701c0-1.687-1.672-3.877-3.897-4.204h-0.03L17.213,15.123z"/><radialGradient id="m_E4AzuPRwYZLGjtI2KPub" cx="8.663" cy="8.634" r="14.144" gradientTransform="matrix(-.9712 .2388 -.1159 -.4738 18.077 10.655)" gradientUnits="userSpaceOnUse"><stop offset=".238" stop-color="#ffe16e"/><stop offset=".596" stop-color="#ffd226"/><stop offset=".749" stop-color="#fdcd23"/><stop offset=".952" stop-color="#fcbd24"/></radialGradient><path fill="url(#m_E4AzuPRwYZLGjtI2KPub)" d="M17.213,15.123l9.748-6.165l-12.745,2.005c-2.497,0.393-4.112,2.858-3.48,5.31L17.213,15.123z"/><radialGradient id="m_E4AzuPRwYZLGjtI2KPuc" cx="21.293" cy="20.883" r="23.485" gradientTransform="matrix(.9994 .0336 -.0274 .8136 .583 3.177)" gradientUnits="userSpaceOnUse"><stop offset="0" stop-color="#ffe16e"/><stop offset=".629" stop-color="#ffd226"/><stop offset=".749" stop-color="#fdcd23"/><stop offset=".999" stop-color="#f0af13"/></radialGradient><path fill="url(#m_E4AzuPRwYZLGjtI2KPuc)" d="M42.788,22.588c-3.081-2.858-8.418-8.85-11.015-11.745c-1.724-1.922-4.579-2.358-6.969-1.381	L1.606,18.948c-0.465,0.19-0.703,0.708-0.546,1.185c0.493,1.493,1.514,2.081,3.258,2.183c0.604,0.036,1.217-0.025,1.811-0.138	c1.133-0.215,13.276-3.905,14.733-4.678c0,0,1.968,1.027,3.227,1.007l-1.033,3.399c-0.346,1.138-1.208,2.053-2.333,2.44	c-3.289,1.129-8.648,0.643-11.797,1.74c-1.807,0.64-3.534,2.255-3.018,4.102c0.246,0.88,1.057,1.48,1.97,1.458	c7.11-0.238,13.972-0.375,17.916,0.667l0-0.002c0.413,0.287,2.995,1.439,5.166,2.388c2.029,0.887,4.219,1.343,6.434,1.343	c0.652,0,1.955,0,2.607,0c2.209,0,4-1.791,4-4v-6.585C44,24.375,43.58,23.323,42.788,22.588z"/><linearGradient id="m_E4AzuPRwYZLGjtI2KPud" x1="2.112" x2="24.852" y1="16.379" y2="16.379" gradientUnits="userSpaceOnUse"><stop offset="0" stop-color="#fed029"/><stop offset="1" stop-color="#fed128"/></linearGradient><path fill="url(#m_E4AzuPRwYZLGjtI2KPud)" d="M24.852,14.61c-0.742,0.012-2.029-0.4-2.905-0.706 c-0.699-0.23-1.253-0.429-1.302-0.412c-0.573,0.288-2.437,0.928-4.653,1.643c-0.952,0.307-1.966,0.627-2.966,0.937 c-1.008,0.313-1.987,0.613-2.841,0.866c-0.503,0.149-0.989,0.284-1.444,0.407c-1.558,0.42-2.695,0.679-3.023,0.652 c-0.269,0.069-0.586,0.129-0.91,0.177c-0.43,0.064-0.877,0.074-1.175,0.113c-0.095,0.013-1.776,0.767-1.488,0.86 c0.629,0.202,1.274,0.068,2.169,0.113c0.579,0.03,1.188-0.033,1.795-0.155c0.575-0.116,3.359-0.933,6.356-1.858 c0.279-0.086,0.559-0.173,0.839-0.26c3.343-1.041,6.716-2.149,7.441-2.534c0,0,2.391,1.097,3.684,1.081L24.852,14.61z" opacity=".05"/><linearGradient id="m_E4AzuPRwYZLGjtI2KPue" x1="2.241" x2="24.821" y1="16.595" y2="16.595" gradientUnits="userSpaceOnUse"><stop offset="0" stop-color="#fdcd29"/><stop offset="1" stop-color="#fdce26"/></linearGradient><path fill="url(#m_E4AzuPRwYZLGjtI2KPue)" d="M24.821,14.804c-0.777,0.012-2.129-0.442-2.946-0.727 c-0.669-0.206-1.224-0.377-1.321-0.343c-0.633,0.303-2.52,0.948-4.736,1.661c-0.975,0.313-2.007,0.638-3.015,0.95 c-1.061,0.328-2.067,0.636-2.887,0.875c-0.509,0.148-1.004,0.276-1.468,0.389c-1.565,0.382-2.674,0.57-3.014,0.457 c-0.284,0.089-0.579,0.169-0.873,0.238c-0.391,0.091-0.785,0.173-1.041,0.197c-0.048,0.057-1.566,0.76-1.227,0.857 c0.63,0.181,1.27,0.059,2.145,0.097c0.554,0.024,1.16-0.042,1.778-0.173c0.63-0.133,3.371-0.941,6.312-1.849 c0.277-0.085,0.555-0.172,0.834-0.259c3.327-1.037,6.672-2.136,7.394-2.519c0,0,2.36,1.092,3.653,1.076L24.821,14.804z" opacity=".1"/><linearGradient id="m_E4AzuPRwYZLGjtI2KPuf" x1="2.365" x2="24.79" y1="16.813" y2="16.813" gradientUnits="userSpaceOnUse"><stop offset="0" stop-color="#fccb29"/><stop offset="1" stop-color="#fccc25"/></linearGradient><path fill="url(#m_E4AzuPRwYZLGjtI2KPuf)" d="M24.79,14.999c-0.811,0.013-2.229-0.484-2.988-0.749 c-0.639-0.181-1.196-0.325-1.341-0.273c-0.693,0.319-2.604,0.969-4.818,1.68c-0.997,0.32-2.047,0.649-3.065,0.963 c-1.114,0.343-2.147,0.659-2.934,0.884c-0.515,0.147-1.019,0.267-1.493,0.371c-1.571,0.344-2.652,0.461-3.006,0.262 c-0.299,0.109-0.572,0.21-0.837,0.299c-0.354,0.119-0.695,0.235-0.906,0.281c-0.004,0.089-1.356,0.753-0.967,0.854 c0.63,0.163,1.266,0.051,2.121,0.08c0.529,0.018,1.132-0.052,1.762-0.19c0.686-0.151,3.384-0.948,6.268-1.839 c0.275-0.085,0.551-0.171,0.828-0.257c3.311-1.032,6.628-2.123,7.346-2.504c0,0,2.33,1.087,3.623,1.071L24.79,14.999z" opacity=".15"/><linearGradient id="m_E4AzuPRwYZLGjtI2KPug" x1="2.482" x2="24.759" y1="17.03" y2="17.03" gradientUnits="userSpaceOnUse"><stop offset="0" stop-color="#fac829"/><stop offset="1" stop-color="#fbca23"/></linearGradient><path fill="url(#m_E4AzuPRwYZLGjtI2KPug)" d="M24.759,15.193c-0.846,0.013-2.328-0.526-3.029-0.77 c-0.609-0.157-1.167-0.273-1.361-0.204c-0.753,0.334-2.688,0.989-4.901,1.698c-1.02,0.326-2.088,0.66-3.114,0.976 c-1.167,0.358-2.227,0.682-2.981,0.893c-0.521,0.146-1.033,0.259-1.517,0.353c-1.578,0.307-2.631,0.351-2.997,0.066 c-0.313,0.13-0.567,0.252-0.801,0.36c-0.318,0.148-0.605,0.297-0.772,0.365c0.04,0.122-1.146,0.747-0.707,0.85 c0.629,0.148,1.262,0.043,2.097,0.063c0.504,0.012,1.104-0.061,1.745-0.207c0.742-0.169,3.396-0.955,6.224-1.83 c0.273-0.084,0.548-0.17,0.822-0.255c3.294-1.028,6.585-2.11,7.299-2.49c0,0,2.299,1.082,3.592,1.066L24.759,15.193z" opacity=".2"/><linearGradient id="m_E4AzuPRwYZLGjtI2KPuh" x1="2.591" x2="24.728" y1="17.245" y2="17.245" gradientUnits="userSpaceOnUse"><stop offset="0" stop-color="#f9c529"/><stop offset="1" stop-color="#fac822"/></linearGradient><path fill="url(#m_E4AzuPRwYZLGjtI2KPuh)" d="M24.728,15.388c-0.88,0.014-2.428-0.568-3.07-0.792 c-0.579-0.133-1.138-0.22-1.38-0.135c-0.813,0.35-2.771,1.01-4.984,1.717c-1.043,0.332-2.129,0.671-3.163,0.989 c-1.22,0.373-2.307,0.704-3.028,0.902c-0.526,0.144-1.048,0.251-1.542,0.335c-1.584,0.27-2.609,0.242-2.989-0.129 c-0.328,0.15-0.562,0.295-0.764,0.421c-0.285,0.178-0.516,0.358-0.637,0.449c0.084,0.154-0.936,0.742-0.447,0.847 c0.627,0.135,1.259,0.035,2.074,0.046c0.479,0.007,1.075-0.071,1.728-0.224c0.797-0.187,3.408-0.963,6.181-1.82 c0.271-0.084,0.544-0.169,0.817-0.254c3.278-1.023,6.541-2.097,7.252-2.475c0,0,2.269,1.077,3.562,1.061L24.728,15.388z" opacity=".25"/><linearGradient id="m_E4AzuPRwYZLGjtI2KPui" x1="2.688" x2="24.697" y1="17.456" y2="17.456" gradientUnits="userSpaceOnUse"><stop offset="0" stop-color="#f8c229"/><stop offset="1" stop-color="#f9c521"/></linearGradient><path fill="url(#m_E4AzuPRwYZLGjtI2KPui)" d="M24.697,15.583c-0.915,0.014-2.528-0.61-3.112-0.813 c-0.549-0.109-1.109-0.168-1.4-0.065c-0.873,0.365-2.855,1.03-5.066,1.735c-1.065,0.339-2.17,0.682-3.212,1.002 c-1.273,0.388-2.387,0.726-3.074,0.91c-0.532,0.143-1.062,0.243-1.566,0.317c-1.59,0.234-2.588,0.133-2.98-0.324 c-0.342,0.171-0.558,0.34-0.728,0.482c-0.252,0.212-0.426,0.42-0.503,0.532c0.128,0.186-0.727,0.738-0.187,0.844 c0.625,0.123,1.255,0.005,2.05,0.03c0.454,0.014,1.047-0.081,1.712-0.242c0.853-0.206,3.421-0.97,6.137-1.811 c0.27-0.083,0.54-0.168,0.811-0.252c3.262-1.019,6.497-2.084,7.205-2.46c0,0,2.238,1.072,3.531,1.056L24.697,15.583z" opacity=".3"/><linearGradient id="m_E4AzuPRwYZLGjtI2KPuj" x1="2.769" x2="24.666" y1="17.666" y2="17.666" gradientUnits="userSpaceOnUse"><stop offset="0" stop-color="#f7bf29"/><stop offset="1" stop-color="#f8c31f"/></linearGradient><path fill="url(#m_E4AzuPRwYZLGjtI2KPuj)" d="M24.666,15.777c-0.949,0.015-2.627-0.652-3.153-0.835 c-0.52-0.084-1.08-0.116-1.419,0.004c-0.933,0.381-2.939,1.051-5.149,1.754c-1.088,0.345-2.211,0.694-3.261,1.014 c-1.326,0.403-2.468,0.748-3.121,0.919c-0.538,0.141-1.077,0.235-1.591,0.299C5.376,19.132,4.405,18.957,4,18.414 c-0.357,0.191-0.554,0.388-0.691,0.544c-0.219,0.248-0.336,0.482-0.368,0.616c0.172,0.219-0.518,0.734,0.074,0.841 c0.623,0.112,1.251-0.005,2.026,0.013c0.429,0.01,1.018-0.092,1.695-0.259c0.909-0.224,3.433-0.978,6.093-1.801 c0.268-0.083,0.537-0.167,0.805-0.25c3.246-1.014,6.453-2.071,7.158-2.445c0,0,2.208,1.067,3.501,1.051L24.666,15.777z" opacity=".35"/><linearGradient id="m_E4AzuPRwYZLGjtI2KPuk" x1="2.824" x2="24.634" y1="17.875" y2="17.875" gradientUnits="userSpaceOnUse"><stop offset="0" stop-color="#f6bc29"/><stop offset="1" stop-color="#f7c11e"/></linearGradient><path fill="url(#m_E4AzuPRwYZLGjtI2KPuk)" d="M24.634,15.972c-0.984,0.016-2.727-0.694-3.194-0.856 c-0.49-0.06-1.051-0.064-1.439,0.073c-0.993,0.396-3.022,1.071-5.231,1.772c-1.111,0.351-2.251,0.705-3.31,1.027 c-1.379,0.418-2.548,0.77-3.168,0.928c-0.544,0.139-1.091,0.228-1.615,0.282c-1.602,0.164-2.545-0.085-2.963-0.715 c-0.372,0.211-0.547,0.438-0.655,0.605c-0.185,0.288-0.247,0.544-0.234,0.7c0.216,0.251-0.309,0.732,0.334,0.838 c0.621,0.102,1.247,0.012,2.002-0.004c0.404-0.009,0.99-0.102,1.679-0.276c0.964-0.243,3.445-0.985,6.049-1.792 c0.266-0.082,0.533-0.165,0.8-0.249c3.229-1.01,6.41-2.058,7.111-2.431c0,0,2.177,1.062,3.47,1.046L24.634,15.972z" opacity=".4"/><linearGradient id="m_E4AzuPRwYZLGjtI2KPul" x1="2.677" x2="24.603" y1="18.076" y2="18.076" gradientUnits="userSpaceOnUse"><stop offset="0" stop-color="#f5ba29"/><stop offset="1" stop-color="#f7bf1d"/></linearGradient><path fill="url(#m_E4AzuPRwYZLGjtI2KPul)" d="M24.603,16.167c-1.018,0.016-2.827-0.736-3.235-0.878 c-0.46-0.036-1.022-0.012-1.459,0.142c-1.053,0.412-3.106,1.092-5.314,1.791c-1.133,0.358-2.292,0.716-3.359,1.04 c-1.431,0.433-2.628,0.791-3.214,0.937c-0.55,0.137-1.106,0.22-1.64,0.264c-1.607,0.13-2.524-0.194-2.955-0.91 c-0.386,0.232-0.539,0.489-0.618,0.666c-0.147,0.329-0.157,0.605-0.099,0.784c0.26,0.284-0.101,0.731,0.594,0.835 c0.618,0.093,1.243,0.005,1.978-0.021c0.378-0.013,0.961-0.113,1.662-0.293c1.019-0.263,3.458-0.993,6.005-1.782 c0.264-0.082,0.529-0.164,0.794-0.247c3.213-1.005,6.366-2.045,7.064-2.416c0,0,2.147,1.057,3.44,1.041L24.603,16.167z" opacity=".45"/><linearGradient id="m_E4AzuPRwYZLGjtI2KPum" x1="2.488" x2="24.572" y1="18.272" y2="18.272" gradientUnits="userSpaceOnUse"><stop offset="0" stop-color="#f4b729"/><stop offset="1" stop-color="#f6bc1b"/></linearGradient><path fill="url(#m_E4AzuPRwYZLGjtI2KPum)" d="M24.572,16.361c-1.053,0.017-2.926-0.777-3.277-0.9 c-0.43-0.012-0.994,0.04-1.478,0.212c-1.113,0.428-3.189,1.112-5.396,1.81c-1.156,0.364-2.333,0.727-3.409,1.053 c-1.484,0.448-2.709,0.812-3.261,0.946c-0.556,0.135-1.12,0.213-1.664,0.246c-1.613,0.096-2.502-0.303-2.946-1.105 c-0.401,0.252-0.529,0.54-0.582,0.727c-0.105,0.371-0.095,0.684,0.035,0.868c0.255,0.357,0.108,0.73,0.854,0.832 c0.616,0.084,1.239-0.002,1.954-0.038c0.353-0.018,0.932-0.123,1.645-0.31c1.075-0.282,3.47-1,5.962-1.773 c0.262-0.081,0.525-0.163,0.788-0.246c3.197-1.001,6.322-2.033,7.017-2.401c0,0,2.117,1.052,3.41,1.036L24.572,16.361z" opacity=".5"/><linearGradient id="m_E4AzuPRwYZLGjtI2KPun" x1="2.288" x2="24.541" y1="18.462" y2="18.462" gradientUnits="userSpaceOnUse"><stop offset="0" stop-color="#f3b429"/><stop offset="1" stop-color="#f5ba1a"/></linearGradient><path fill="url(#m_E4AzuPRwYZLGjtI2KPun)" d="M24.541,16.556c-1.087,0.017-3.026-0.819-3.318-0.921 c-0.4,0.012-0.965,0.093-1.498,0.281c-1.173,0.443-3.273,1.133-5.479,1.828c-1.179,0.37-2.374,0.738-3.458,1.066 c-1.537,0.463-2.789,0.833-3.308,0.955c-0.563,0.132-1.134,0.206-1.689,0.228c-1.619,0.063-2.481-0.412-2.937-1.301 c-0.415,0.272-0.517,0.591-0.545,0.788c-0.058,0.413,0.001,0.745,0.17,0.951c0.312,0.382,0.317,0.731,1.114,0.828 c0.614,0.075,1.235-0.008,1.931-0.054c0.328-0.022,0.904-0.134,1.629-0.328c1.13-0.302,3.482-1.008,5.918-1.763 c0.261-0.081,0.522-0.162,0.782-0.244c3.181-0.996,6.278-2.02,6.969-2.386c0,0,2.086,1.047,3.379,1.031L24.541,16.556z" opacity=".55"/><linearGradient id="m_E4AzuPRwYZLGjtI2KPuo" x1="2.059" x2="24.51" y1="18.652" y2="18.652" gradientUnits="userSpaceOnUse"><stop offset="0" stop-color="#f1b129"/><stop offset="1" stop-color="#f4b818"/></linearGradient><path fill="url(#m_E4AzuPRwYZLGjtI2KPuo)" d="M24.51,16.75c-1.122,0.018-3.126-0.861-3.359-0.943 c-0.371,0.037-0.936,0.145-1.518,0.35c-1.233,0.459-3.357,1.154-5.562,1.847c-1.201,0.377-2.415,0.749-3.507,1.079 c-1.59,0.478-2.87,0.853-3.355,0.964c-0.569,0.13-1.149,0.199-1.713,0.21c-1.625,0.03-2.46-0.522-2.929-1.496 c-0.43,0.293-0.505,0.64-0.509,0.849c-0.009,0.452,0.096,0.804,0.304,1.035c0.366,0.407,0.525,0.733,1.375,0.825 c0.612,0.067,1.231-0.013,1.907-0.071c0.303-0.026,0.875-0.145,1.612-0.345c1.185-0.322,3.495-1.015,5.874-1.754 c0.259-0.08,0.518-0.161,0.777-0.242c3.164-0.991,6.235-2.007,6.922-2.372c0,0,2.056,1.042,3.349,1.027L24.51,16.75z" opacity=".6"/><linearGradient id="m_E4AzuPRwYZLGjtI2KPup" x1="1.806" x2="24.479" y1="18.842" y2="18.842" gradientUnits="userSpaceOnUse"><stop offset="0" stop-color="#f0ae29"/><stop offset="1" stop-color="#f3b617"/></linearGradient><path fill="url(#m_E4AzuPRwYZLGjtI2KPup)" d="M24.479,16.945c-1.156,0.018-3.225-0.903-3.4-0.964 c-0.341,0.061-0.907,0.197-1.537,0.42c-1.293,0.474-3.44,1.174-5.644,1.865c-1.224,0.383-2.455,0.761-3.556,1.092 C8.699,19.85,7.391,20.231,6.94,20.33c-0.575,0.126-1.163,0.193-1.738,0.192c-1.63-0.002-2.438-0.631-2.92-1.691 c-0.445,0.313-0.491,0.687-0.472,0.911C1.851,20.23,2,20.604,2.248,20.86c0.418,0.432,0.734,0.736,1.635,0.822 c0.61,0.059,1.227-0.018,1.883-0.088c0.278-0.03,0.846-0.156,1.596-0.362c1.241-0.342,3.507-1.023,5.83-1.744 c0.257-0.08,0.514-0.16,0.771-0.241c3.148-0.987,6.191-1.994,6.875-2.357c0,0,2.025,1.037,3.318,1.022L24.479,16.945z" opacity=".65"/><linearGradient id="m_E4AzuPRwYZLGjtI2KPuq" x1="1.545" x2="24.448" y1="19.032" y2="19.032" gradientUnits="userSpaceOnUse"><stop offset="0" stop-color="#efac29"/><stop offset="1" stop-color="#f2b316"/></linearGradient><path fill="url(#m_E4AzuPRwYZLGjtI2KPuq)" d="M24.448,17.14c-1.191,0.019-3.325-0.945-3.442-0.986 c-0.311,0.085-0.878,0.249-1.557,0.489c-1.353,0.49-3.524,1.195-5.727,1.884c-1.247,0.39-2.496,0.772-3.605,1.105 c-1.696,0.508-3.031,0.894-3.448,0.982c-0.582,0.123-1.178,0.186-1.762,0.174c-1.636-0.034-2.417-0.74-2.912-1.887 c-0.459,0.333-0.478,0.734-0.436,0.972c0.093,0.524,0.285,0.921,0.573,1.203c0.469,0.458,0.942,0.74,1.895,0.819 c0.608,0.051,1.223-0.022,1.859-0.105c0.253-0.033,0.818-0.167,1.579-0.379c1.296-0.362,3.519-1.03,5.786-1.735 c0.255-0.079,0.511-0.159,0.765-0.239c3.132-0.982,6.147-1.981,6.828-2.342c0,0,1.995,1.032,3.288,1.017L24.448,17.14z" opacity=".7"/><linearGradient id="m_E4AzuPRwYZLGjtI2KPur" x1="1.278" x2="24.417" y1="19.223" y2="19.223" gradientUnits="userSpaceOnUse"><stop offset="0" stop-color="#eea929"/><stop offset="1" stop-color="#f1b114"/></linearGradient><path fill="url(#m_E4AzuPRwYZLGjtI2KPur)" d="M24.417,17.334c-1.225,0.019-3.425-0.987-3.483-1.007 c-0.281,0.109-0.849,0.301-1.576,0.558c-1.413,0.505-3.608,1.215-5.809,1.902c-1.269,0.396-2.537,0.783-3.654,1.117 c-1.749,0.523-3.112,0.914-3.495,0.99c-0.588,0.118-1.192,0.18-1.787,0.156c-1.643-0.066-2.395-0.849-2.903-2.082 c-0.474,0.354-0.465,0.78-0.399,1.033c0.144,0.557,0.378,0.979,0.708,1.287c0.52,0.484,1.151,0.744,2.155,0.816 c0.606,0.043,1.219-0.024,1.835-0.121c0.228-0.036,0.789-0.179,1.562-0.397c1.35-0.384,3.532-1.037,5.743-1.725 c0.253-0.079,0.507-0.158,0.76-0.237c3.116-0.978,6.104-1.968,6.781-2.327c0,0,1.964,1.027,3.257,1.012L24.417,17.334z" opacity=".75"/><linearGradient id="m_E4AzuPRwYZLGjtI2KPus" x1="1.006" x2="24.386" y1="19.413" y2="19.413" gradientUnits="userSpaceOnUse"><stop offset="0" stop-color="#eda629"/><stop offset="1" stop-color="#f0af13"/></linearGradient><path fill="url(#m_E4AzuPRwYZLGjtI2KPus)" d="M20.862,17.5c0,0,1.934,1.022,3.227,1.007l0.297-0.978 c-1.259,0.02-3.524-1.029-3.524-1.029c-0.728,0.387-4.128,1.502-7.488,2.548s-6.678,2.022-7.245,2.13 c-0.595,0.113-1.207,0.174-1.811,0.138c-1.649-0.097-2.374-0.958-2.895-2.277c-0.489,0.374-0.452,0.825-0.363,1.094 c0.493,1.493,1.514,2.081,3.258,2.183c0.604,0.036,1.217-0.025,1.811-0.138c0.566-0.107,3.885-1.084,7.245-2.13 S20.133,17.887,20.862,17.5z" opacity=".8"/><g opacity=".3"><linearGradient id="m_E4AzuPRwYZLGjtI2KPut" x1="6.33" x2="43.974" y1="29.268" y2="29.268" gradientUnits="userSpaceOnUse"><stop offset="0" stop-color="#f0af13"/><stop offset=".519" stop-color="#fed026" stop-opacity=".49"/><stop offset=".999" stop-color="#fecf24"/></linearGradient><linearGradient id="m_E4AzuPRwYZLGjtI2KPuu" x1="6.29" x2="43.976" y1="29.631" y2="29.631" gradientUnits="userSpaceOnUse"><stop offset="0" stop-color="#efae13"/><stop offset=".519" stop-color="#fccc24" stop-opacity=".536"/><stop offset=".999" stop-color="#fccb23"/></linearGradient><path fill="url(#m_E4AzuPRwYZLGjtI2KPuu)" d="M6.289,28.09c0.1,0.152,0.22,0.29,0.363,0.413 c0.319,0.272,0.746,0.436,1.202,0.423c7.111-0.203,13.972-0.375,17.916,0.667l0-0.002c0.413,0.287,2.995,1.439,5.166,2.388 c2.029,0.887,4.219,1.343,6.434,1.343c0.652,0,1.955,0,2.607,0c2.209,0,4-1.791,4-4v-2.818c0,2.209-1.791,4-4,4 c-0.652,0-1.955,0-2.607,0c-2.215,0-4.404-0.456-6.434-1.343c-2.171-0.949-4.753-2.101-5.166-2.388l0,0.002 c-3.29-0.869-8.611-0.917-14.411-0.772c-0.896,0.114-1.744,0.261-2.477,0.495c-0.173,0.055-0.344,0.12-0.513,0.191 c-0.799,0.335-1.531,0.779-1.993,1.298C6.345,28.021,6.317,28.056,6.289,28.09z" opacity=".091"/><linearGradient id="m_E4AzuPRwYZLGjtI2KPuv" x1="6.249" x2="43.979" y1="29.994" y2="29.994" gradientUnits="userSpaceOnUse"><stop offset="0" stop-color="#eeac13"/><stop offset=".519" stop-color="#f9c723" stop-opacity=".583"/><stop offset=".999" stop-color="#f9c621"/></linearGradient><path fill="url(#m_E4AzuPRwYZLGjtI2KPuv)" d="M6.249,28.183c0.082,0.174,0.189,0.338,0.329,0.489 c0.311,0.334,0.777,0.54,1.278,0.526c7.111-0.203,13.972-0.375,17.916,0.667l0-0.002c0.413,0.287,2.995,1.439,5.166,2.388 c2.029,0.887,4.219,1.343,6.434,1.343c0.652,0,1.955,0,2.607,0c2.209,0,4-1.791,4-4v-2.636c0,2.209-1.791,4-4,4 c-0.652,0-1.955,0-2.607,0c-2.215,0-4.404-0.456-6.434-1.343c-2.171-0.949-4.753-2.101-5.166-2.388l0,0.002 c-3.296-0.871-8.632-0.917-14.446-0.771c-0.892,0.105-1.742,0.239-2.489,0.453c-0.174,0.05-0.347,0.109-0.518,0.174 c-0.81,0.304-1.55,0.643-1.991,1.023C6.299,28.132,6.275,28.158,6.249,28.183z" opacity=".182"/><linearGradient id="m_E4AzuPRwYZLGjtI2KPuw" x1="6.208" x2="43.981" y1="30.357" y2="30.357" gradientUnits="userSpaceOnUse"><stop offset="0" stop-color="#edab14"/><stop offset=".519" stop-color="#f7c321" stop-opacity=".629"/><stop offset=".999" stop-color="#f7c220"/></linearGradient><path fill="url(#m_E4AzuPRwYZLGjtI2KPuw)" d="M6.209,28.276c0.064,0.196,0.158,0.385,0.295,0.564 c0.303,0.394,0.808,0.645,1.355,0.63c7.111-0.203,13.972-0.375,17.916,0.667l0-0.002c0.413,0.287,2.995,1.439,5.166,2.388 c2.029,0.887,4.219,1.343,6.434,1.343c0.652,0,1.955,0,2.607,0c2.209,0,4-1.791,4-4v-2.455c0,2.209-1.791,4-4,4 c-0.652,0-1.955,0-2.607,0c-2.215,0-4.404-0.456-6.434-1.343c-2.171-0.949-4.753-2.101-5.166-2.388l0,0.002 c-3.303-0.873-8.653-0.918-14.481-0.77c-0.888,0.096-1.74,0.217-2.501,0.411c-0.176,0.045-0.35,0.099-0.523,0.156 c-0.821,0.275-1.569,0.508-1.988,0.747C6.254,28.243,6.233,28.259,6.209,28.276z" opacity=".273"/><linearGradient id="m_E4AzuPRwYZLGjtI2KPux" x1="6.168" x2="43.983" y1="30.72" y2="30.72" gradientUnits="userSpaceOnUse"><stop offset="0" stop-color="#ecaa14"/><stop offset=".519" stop-color="#f5bf20" stop-opacity=".675"/><stop offset=".999" stop-color="#f5be1f"/></linearGradient><path fill="url(#m_E4AzuPRwYZLGjtI2KPux)" d="M6.168,28.368c0.046,0.219,0.127,0.433,0.261,0.64 c0.296,0.455,0.839,0.75,1.432,0.733c7.111-0.203,13.972-0.375,17.916,0.667l0-0.002c0.413,0.287,2.995,1.439,5.166,2.388 c2.029,0.887,4.219,1.343,6.434,1.343c0.652,0,1.955,0,2.607,0c2.209,0,4-1.791,4-4v-2.273c0,2.209-1.791,4-4,4 c-0.652,0-1.955,0-2.607,0c-2.215,0-4.404-0.456-6.434-1.343c-2.171-0.949-4.753-2.101-5.166-2.388l0,0.002 c-3.31-0.874-8.675-0.918-14.516-0.769c-0.884,0.087-1.738,0.195-2.512,0.37c-0.177,0.04-0.353,0.088-0.528,0.139 c-0.832,0.244-1.589,0.372-1.986,0.471C6.209,28.354,6.191,28.361,6.168,28.368z" opacity=".364"/><linearGradient id="m_E4AzuPRwYZLGjtI2KPuy" x1="6.128" x2="43.986" y1="31.082" y2="31.082" gradientUnits="userSpaceOnUse"><stop offset="0" stop-color="#eba814"/><stop offset=".519" stop-color="#f3ba1e" stop-opacity=".722"/><stop offset=".999" stop-color="#f3ba1d"/></linearGradient><path fill="url(#m_E4AzuPRwYZLGjtI2KPuy)" d="M6.128,28.461c0.028,0.241,0.096,0.48,0.227,0.716 c0.288,0.516,0.87,0.855,1.509,0.837c7.111-0.203,13.972-0.375,17.916,0.667l0-0.002c0.413,0.287,2.995,1.439,5.166,2.388 c2.029,0.887,4.219,1.343,6.434,1.343c0.652,0,1.955,0,2.607,0c2.209,0,4-1.791,4-4v-2.091c0,2.209-1.791,4-4,4 c-0.652,0-1.955,0-2.607,0c-2.215,0-4.404-0.456-6.434-1.343c-2.171-0.949-4.753-2.101-5.166-2.388l0,0.002 c-3.316-0.876-8.696-0.918-14.551-0.768c-0.88,0.078-1.736,0.174-2.524,0.328c-0.178,0.035-0.356,0.077-0.532,0.122 c-0.843,0.213-1.608,0.236-1.984,0.196C6.163,28.464,6.149,28.463,6.128,28.461z" opacity=".455"/><linearGradient id="m_E4AzuPRwYZLGjtI2KPuz" x1="6.087" x2="43.988" y1="31.445" y2="31.445" gradientUnits="userSpaceOnUse"><stop offset="0" stop-color="#eaa714"/><stop offset=".519" stop-color="#f0b61d" stop-opacity=".768"/><stop offset=".999" stop-color="#f0b51c"/></linearGradient><path fill="url(#m_E4AzuPRwYZLGjtI2KPuz)" d="M6.087,28.554c0.01,0.263,0.065,0.528,0.193,0.791 c0.282,0.576,0.901,0.96,1.586,0.941c7.111-0.203,13.972-0.375,17.916,0.667l0-0.002c0.413,0.287,2.995,1.439,5.166,2.388 c2.029,0.887,4.219,1.343,6.434,1.343c0.652,0,1.955,0,2.607,0c2.209,0,4-1.791,4-4v-1.909c0,2.209-1.791,4-4,4 c-0.652,0-1.955,0-2.607,0c-2.215,0-4.404-0.456-6.434-1.343c-2.171-0.949-4.753-2.101-5.166-2.388l0,0.002 c-3.323-0.878-8.718-0.918-14.586-0.767c-0.876,0.068-1.734,0.152-2.536,0.286c-0.18,0.03-0.359,0.067-0.537,0.105 c-0.855,0.182-1.627,0.1-1.982-0.08C6.118,28.575,6.107,28.565,6.087,28.554z" opacity=".545"/><linearGradient id="m_E4AzuPRwYZLGjtI2KPuA" x1="6.046" x2="43.99" y1="31.8" y2="31.8" gradientUnits="userSpaceOnUse"><stop offset="0" stop-color="#e9a514"/><stop offset=".519" stop-color="#eeb11b" stop-opacity=".815"/><stop offset=".999" stop-color="#eeb11a"/></linearGradient><path fill="url(#m_E4AzuPRwYZLGjtI2KPuA)" d="M6.047,28.646c-0.008,0.285,0.034,0.575,0.159,0.867 c0.275,0.637,0.933,1.065,1.663,1.044c7.111-0.203,13.972-0.375,17.916,0.667l0-0.002c0.413,0.287,2.995,1.439,5.166,2.388 c2.029,0.887,4.219,1.343,6.434,1.343c0.652,0,1.955,0,2.607,0c2.209,0,4-1.791,4-4v-1.727c0,2.209-1.791,4-4,4 c-0.652,0-1.955,0-2.607,0c-2.215,0-4.404-0.456-6.434-1.343c-2.171-0.949-4.753-2.101-5.166-2.388l0,0.002 c-3.33-0.88-8.739-0.919-14.621-0.767c-0.872,0.059-1.731,0.131-2.547,0.244C8.434,29,8.254,29.031,8.074,29.063 c-0.866,0.151-1.647-0.036-1.979-0.356C6.073,28.686,6.065,28.667,6.047,28.646z" opacity=".636"/><linearGradient id="m_E4AzuPRwYZLGjtI2KPuB" x1="5.997" x2="43.993" y1="31.982" y2="31.982" gradientUnits="userSpaceOnUse"><stop offset="0" stop-color="#e8a414"/><stop offset=".519" stop-color="#ecad1a" stop-opacity=".861"/><stop offset=".999" stop-color="#ecad19"/></linearGradient><path fill="url(#m_E4AzuPRwYZLGjtI2KPuB)" d="M6.006,28.739c-0.026,0.308,0.003,0.622,0.125,0.943 c0.268,0.697,0.964,1.17,1.739,1.148c7.111-0.203,13.972-0.375,17.916,0.667l0-0.002c0.413,0.287,2.995,1.439,5.166,2.388 c2.029,0.887,4.219,1.343,6.434,1.343c0.652,0,1.955,0,2.607,0c2.209,0,4-1.791,4-4V29.68c0,2.209-1.791,4-4,4 c-0.652,0-1.955,0-2.607,0c-2.215,0-4.404-0.456-6.434-1.343c-2.171-0.949-4.753-2.101-5.166-2.388l0,0.002 c-3.336-0.881-8.76-0.919-14.656-0.766c-0.868,0.05-1.729,0.11-2.559,0.203c-0.183,0.02-0.365,0.045-0.547,0.07 c-0.878,0.12-1.666-0.171-1.977-0.631C6.028,28.797,6.023,28.769,6.006,28.739z" opacity=".727"/><linearGradient id="m_E4AzuPRwYZLGjtI2KPuC" x1="5.943" x2="43.995" y1="32.165" y2="32.165" gradientUnits="userSpaceOnUse"><stop offset="0" stop-color="#e7a315"/><stop offset=".519" stop-color="#eaa918" stop-opacity=".907"/><stop offset=".999" stop-color="#eaa918"/></linearGradient><path fill="url(#m_E4AzuPRwYZLGjtI2KPuC)" d="M5.966,28.832c-0.044,0.33-0.028,0.67,0.091,1.018 c0.26,0.758,0.995,1.275,1.816,1.251c7.111-0.203,13.972-0.375,17.916,0.667l0-0.002c0.413,0.287,2.995,1.439,5.166,2.388 c2.029,0.887,4.219,1.343,6.434,1.343c0.652,0,1.955,0,2.607,0c2.209,0,4-1.791,4-4v-1.364c0,2.209-1.791,4-4,4 c-0.652,0-1.955,0-2.607,0c-2.215,0-4.404-0.456-6.434-1.343c-2.171-0.949-4.753-2.101-5.166-2.388l0,0.002 c-3.343-0.883-8.782-0.919-14.691-0.765c-0.864,0.041-1.727,0.09-2.57,0.161c-0.184,0.016-0.368,0.035-0.551,0.053 c-0.89,0.089-1.686-0.307-1.975-0.907C5.982,28.908,5.981,28.871,5.966,28.832z" opacity=".818"/><linearGradient id="m_E4AzuPRwYZLGjtI2KPuD" x1="5.885" x2="43.998" y1="32.347" y2="32.347" gradientUnits="userSpaceOnUse"><stop offset="0" stop-color="#e6a115"/><stop offset=".519" stop-color="#e7a417" stop-opacity=".954"/><stop offset=".999" stop-color="#e7a416"/></linearGradient><path fill="url(#m_E4AzuPRwYZLGjtI2KPuD)" d="M5.925,28.925c-0.062,0.352-0.059,0.717,0.057,1.094 c0.253,0.819,1.026,1.38,1.893,1.355c7.111-0.203,13.972-0.375,17.916,0.667l0-0.002c0.413,0.287,2.995,1.439,5.166,2.388 c2.029,0.887,4.219,1.343,6.434,1.343c0.652,0,1.955,0,2.607,0c2.209,0,4-1.791,4-4v-1.182c0,2.209-1.791,4-4,4 c-0.652,0-1.955,0-2.607,0c-2.215,0-4.404-0.456-6.434-1.343c-2.171-0.949-4.753-2.101-5.166-2.388l0,0.002 c-3.349-0.885-8.803-0.919-14.726-0.764c-0.86,0.032-1.725,0.071-2.582,0.119c-0.185,0.011-0.371,0.024-0.556,0.036 c-0.901,0.058-1.705-0.443-1.972-1.183C5.937,29.018,5.939,28.972,5.925,28.925z" opacity=".909"/><path fill="#e5a015" d="M40,35.041c-0.652,0-1.955,0-2.607,0c-2.215,0-4.404-0.456-6.434-1.343 c-2.171-0.949-4.753-2.101-5.166-2.388l0,0.002c-3.944-1.042-10.805-0.905-17.916-0.667c-0.913,0.022-1.724-0.579-1.97-1.458 c-0.016-0.058-0.011-0.112-0.023-0.17c-0.08,0.375-0.09,0.765,0.023,1.17c0.246,0.88,1.057,1.48,1.97,1.458 c7.11-0.238,13.972-0.375,17.916,0.667l0-0.002c0.413,0.287,2.995,1.439,5.166,2.388c2.029,0.887,4.219,1.343,6.434,1.343 c0.652,0,1.955,0,2.607,0c2.209,0,4-1.791,4-4v-1C44,33.25,42.209,35.041,40,35.041z"/></g><g opacity=".12"><linearGradient id="m_E4AzuPRwYZLGjtI2KPuE" x1="1.012" x2="44" y1="19.207" y2="19.207" gradientUnits="userSpaceOnUse"><stop offset="0" stop-color="#f0af13"/><stop offset=".519" stop-color="#fed026" stop-opacity=".49"/><stop offset=".999" stop-color="#fecf24"/></linearGradient><linearGradient id="m_E4AzuPRwYZLGjtI2KPuF" x1="1.076" x2="44" y1="19.071" y2="19.071" gradientUnits="userSpaceOnUse"><stop offset="0" stop-color="#efae13"/><stop offset=".519" stop-color="#fccc24" stop-opacity=".536"/><stop offset=".999" stop-color="#fccb23"/></linearGradient><path fill="url(#m_E4AzuPRwYZLGjtI2KPuF)" d="M24.804,9.462L1.717,18.903c-0.423,0.173-0.75,0.689-0.607,1.122 c0.113,0.487,0.305,0.904,0.597,1.234c0.051,0.057,0.104,0.111,0.159,0.162c0.141,0.097,0.3,0.182,0.476,0.258 c0.269,0.144,0.668,0.21,1.017,0.279l21.446-8.769c2.39-0.977,5.245-0.541,6.969,1.381c2.597,2.894,7.934,8.887,11.015,11.745 C43.58,27.05,44,28.103,44,29.183v-1.132c0-0.076-0.023-2.747-0.067-2.808c-0.013-0.27-0.053-0.537-0.118-0.797 c-0.186-0.744-0.578-1.444-1.161-1.989c-3.083-2.881-8.319-8.759-10.881-11.615C30.049,8.921,27.194,8.485,24.804,9.462z" opacity=".091"/><linearGradient id="m_E4AzuPRwYZLGjtI2KPuG" x1="1.135" x2="44" y1="18.934" y2="18.934" gradientUnits="userSpaceOnUse"><stop offset="0" stop-color="#eeac13"/><stop offset=".519" stop-color="#f9c723" stop-opacity=".583"/><stop offset=".999" stop-color="#f9c621"/></linearGradient><path fill="url(#m_E4AzuPRwYZLGjtI2KPuG)" d="M24.804,9.462L1.828,18.858c-0.38,0.156-0.797,0.669-0.668,1.06 c0.055,0.457,0.204,0.884,0.483,1.229c0.048,0.06,0.1,0.114,0.152,0.169c0.137,0.07,0.295,0.131,0.474,0.191 c0.243,0.129,0.7,0.148,1.014,0.211l21.522-8.8c2.39-0.977,5.245-0.541,6.969,1.381c2.597,2.894,7.934,8.887,11.015,11.745 C43.58,26.777,44,27.83,44,28.91v-1.118c0-0.153-0.046-2.638-0.134-2.76c-0.025-0.262-0.078-0.52-0.154-0.771 c-0.214-0.711-0.614-1.39-1.192-1.933c-3.085-2.904-8.219-8.667-10.747-11.485C30.049,8.921,27.194,8.485,24.804,9.462z" opacity=".182"/><linearGradient id="m_E4AzuPRwYZLGjtI2KPuH" x1="1.192" x2="44" y1="18.798" y2="18.798" gradientUnits="userSpaceOnUse"><stop offset="0" stop-color="#edab14"/><stop offset=".519" stop-color="#f7c321" stop-opacity=".629"/><stop offset=".999" stop-color="#f7c220"/></linearGradient><path fill="url(#m_E4AzuPRwYZLGjtI2KPuH)" d="M24.804,9.462l-22.866,9.35c-0.338,0.138-0.844,0.65-0.729,0.997 c-0.003,0.427,0.103,0.864,0.369,1.224c0.046,0.062,0.095,0.118,0.145,0.175c0.134,0.043,0.29,0.08,0.472,0.124 c0.216,0.115,0.733,0.087,1.012,0.142l21.597-8.832c2.39-0.977,5.245-0.541,6.969,1.381c2.597,2.894,7.934,8.887,11.015,11.745 C43.58,26.504,44,27.557,44,28.638v-1.105c0-0.229-0.069-2.53-0.201-2.712c-0.038-0.255-0.103-0.504-0.189-0.745 c-0.242-0.677-0.651-1.335-1.223-1.876c-3.087-2.926-8.12-8.576-10.614-11.356C30.049,8.921,27.194,8.485,24.804,9.462z" opacity=".273"/><linearGradient id="m_E4AzuPRwYZLGjtI2KPuI" x1="1.237" x2="44" y1="18.662" y2="18.662" gradientUnits="userSpaceOnUse"><stop offset="0" stop-color="#ecaa14"/><stop offset=".519" stop-color="#f5bf20" stop-opacity=".675"/><stop offset=".999" stop-color="#f5be1f"/></linearGradient><path fill="url(#m_E4AzuPRwYZLGjtI2KPuI)" d="M24.804,9.462L2.049,18.767c-0.296,0.121-0.891,0.631-0.79,0.935 c-0.061,0.398,0.002,0.845,0.254,1.219c0.044,0.064,0.091,0.122,0.139,0.182c0.13,0.015,0.285,0.029,0.469,0.057 c0.189,0.101,0.765,0.025,1.01,0.074l21.673-8.863c2.39-0.977,5.245-0.541,6.969,1.381c2.597,2.894,7.934,8.887,11.015,11.745 C43.58,26.232,44,27.285,44,28.365v-1.092c0-0.305-0.092-2.421-0.268-2.665c-0.051-0.247-0.128-0.487-0.225-0.719 c-0.269-0.644-0.687-1.28-1.254-1.82c-3.089-2.949-8.02-8.485-10.48-11.226C30.049,8.921,27.194,8.485,24.804,9.462z" opacity=".364"/><linearGradient id="m_E4AzuPRwYZLGjtI2KPuJ" x1="1.238" x2="44" y1="18.525" y2="18.525" gradientUnits="userSpaceOnUse"><stop offset="0" stop-color="#eba814"/><stop offset=".519" stop-color="#f3ba1e" stop-opacity=".722"/><stop offset=".999" stop-color="#f3ba1d"/></linearGradient><path fill="url(#m_E4AzuPRwYZLGjtI2KPuJ)" d="M24.804,9.462L2.16,18.722c-0.254,0.104-0.937,0.612-0.851,0.873 c-0.118,0.368-0.099,0.825,0.14,1.214c0.041,0.067,0.087,0.126,0.132,0.188c0.126-0.012,0.28-0.022,0.467-0.009 c0.162,0.086,0.798-0.037,1.007,0.005l21.749-8.894c2.39-0.977,5.245-0.541,6.969,1.381c2.597,2.894,7.934,8.887,11.015,11.745 C43.58,25.959,44,27.012,44,28.092v-1.079c0-0.381-0.115-2.313-0.335-2.617c-0.063-0.239-0.153-0.47-0.261-0.693 c-0.296-0.61-0.724-1.226-1.285-1.764c-3.092-2.972-7.921-8.393-10.346-11.096C30.049,8.921,27.194,8.485,24.804,9.462z" opacity=".455"/><linearGradient id="m_E4AzuPRwYZLGjtI2KPuK" x1="1.22" x2="44" y1="18.389" y2="18.389" gradientUnits="userSpaceOnUse"><stop offset="0" stop-color="#eaa714"/><stop offset=".519" stop-color="#f0b61d" stop-opacity=".768"/><stop offset=".999" stop-color="#f0b51c"/></linearGradient><path fill="url(#m_E4AzuPRwYZLGjtI2KPuK)" d="M24.804,9.462L2.27,18.677c-0.211,0.086-0.984,0.593-0.912,0.81 c-0.176,0.338-0.199,0.806,0.026,1.209c0.039,0.069,0.083,0.13,0.125,0.194c0.122-0.04,0.276-0.073,0.465-0.076 c0.135,0.072,0.831-0.098,1.005-0.063l21.825-8.925c2.39-0.977,5.245-0.541,6.969,1.381c2.597,2.894,7.934,8.887,11.015,11.745 C43.58,25.686,44,26.739,44,27.82v-1.066c0-0.458-0.138-2.204-0.402-2.569c-0.076-0.231-0.177-0.454-0.296-0.667 c-0.322-0.577-0.761-1.171-1.316-1.708c-3.094-2.995-7.821-8.302-10.212-10.967C30.049,8.921,27.194,8.485,24.804,9.462z" opacity=".545"/><linearGradient id="m_E4AzuPRwYZLGjtI2KPuL" x1="1.191" x2="44" y1="18.253" y2="18.253" gradientUnits="userSpaceOnUse"><stop offset="0" stop-color="#e9a514"/><stop offset=".519" stop-color="#eeb11b" stop-opacity=".815"/><stop offset=".999" stop-color="#eeb11a"/></linearGradient><path fill="url(#m_E4AzuPRwYZLGjtI2KPuL)" d="M24.804,9.462L2.381,18.632c-0.169,0.069-1.031,0.574-0.974,0.748 c-0.234,0.309-0.3,0.786-0.089,1.204c0.036,0.072,0.079,0.134,0.119,0.201c0.118-0.067,0.271-0.124,0.463-0.143 c0.108,0.057,0.863-0.16,1.003-0.132l21.901-8.956c2.39-0.977,5.245-0.541,6.969,1.381c2.597,2.894,7.934,8.887,11.015,11.745 C43.58,25.414,44,26.466,44,27.547v-1.053c0-0.534-0.161-2.096-0.469-2.522c-0.089-0.224-0.202-0.437-0.332-0.641 c-0.348-0.544-0.797-1.116-1.347-1.651c-3.096-3.018-7.722-8.21-10.078-10.837C30.049,8.921,27.194,8.485,24.804,9.462z" opacity=".636"/><linearGradient id="m_E4AzuPRwYZLGjtI2KPuM" x1="1.154" x2="44" y1="18.116" y2="18.116" gradientUnits="userSpaceOnUse"><stop offset="0" stop-color="#e8a414"/><stop offset=".519" stop-color="#ecad1a" stop-opacity=".861"/><stop offset=".999" stop-color="#ecad19"/></linearGradient><path fill="url(#m_E4AzuPRwYZLGjtI2KPuM)" d="M24.804,9.462L2.492,18.586c-0.127,0.052-1.078,0.555-1.035,0.685 c-0.292,0.279-0.401,0.766-0.203,1.199c0.034,0.074,0.074,0.138,0.112,0.207c0.114-0.095,0.266-0.175,0.461-0.21 c0.081,0.043,0.896-0.221,1.001-0.201l21.977-8.987c2.39-0.977,5.245-0.541,6.969,1.381c2.597,2.894,7.934,8.887,11.015,11.745 C43.58,25.141,44,26.194,44,27.274v-1.039c0-0.61-0.184-1.987-0.536-2.474c-0.101-0.216-0.226-0.421-0.368-0.615 c-0.374-0.511-0.834-1.062-1.379-1.595c-3.098-3.04-7.622-8.119-9.944-10.707C30.049,8.921,27.194,8.485,24.804,9.462z" opacity=".727"/><linearGradient id="m_E4AzuPRwYZLGjtI2KPuN" x1="1.111" x2="44" y1="17.98" y2="17.98" gradientUnits="userSpaceOnUse"><stop offset="0" stop-color="#e7a315"/><stop offset=".519" stop-color="#eaa918" stop-opacity=".907"/><stop offset=".999" stop-color="#eaa918"/></linearGradient><path fill="url(#m_E4AzuPRwYZLGjtI2KPuN)" d="M24.804,9.462L2.603,18.541c-0.085,0.035-1.124,0.536-1.096,0.623 c-0.349,0.249-0.502,0.747-0.317,1.194c0.032,0.077,0.07,0.142,0.105,0.214c0.11-0.122,0.261-0.226,0.459-0.277 c0.054,0.029,0.928-0.283,0.998-0.269l22.053-9.018c2.39-0.977,5.245-0.541,6.969,1.381c2.597,2.894,7.934,8.887,11.015,11.745 C43.58,24.868,44,25.921,44,27.001v-1.026c0-0.687-0.207-1.879-0.603-2.427c-0.114-0.208-0.25-0.405-0.403-0.589 c-0.399-0.479-0.871-1.007-1.41-1.539c-3.1-3.063-7.523-8.028-9.811-10.578C30.049,8.921,27.194,8.485,24.804,9.462z" opacity=".818"/><linearGradient id="m_E4AzuPRwYZLGjtI2KPuO" x1="1.063" x2="44" y1="17.844" y2="17.844" gradientUnits="userSpaceOnUse"><stop offset="0" stop-color="#e6a115"/><stop offset=".519" stop-color="#e7a417" stop-opacity=".954"/><stop offset=".999" stop-color="#e7a416"/></linearGradient><path fill="url(#m_E4AzuPRwYZLGjtI2KPuO)" d="M24.804,9.462L2.713,18.496c-0.042,0.017-1.171,0.517-1.157,0.56 c-0.407,0.22-0.603,0.727-0.432,1.19c0.029,0.079,0.066,0.146,0.098,0.22c0.106-0.149,0.256-0.277,0.456-0.344 c0.027,0.014,0.961-0.345,0.996-0.338l22.128-9.049c2.39-0.977,5.245-0.541,6.969,1.381c2.597,2.894,7.934,8.887,11.015,11.745 C43.58,24.595,44,25.648,44,26.729v-1.013c0-0.763-0.23-1.77-0.67-2.379c-0.127-0.2-0.274-0.388-0.439-0.563 c-0.423-0.447-0.907-0.952-1.441-1.483c-3.102-3.086-7.423-7.936-9.677-10.448C30.049,8.921,27.194,8.485,24.804,9.462z" opacity=".909"/><path fill="#e5a015" d="M42.788,22.588c-3.081-2.858-8.418-8.85-11.015-11.745c-1.724-1.922-4.579-2.358-6.969-1.381 L1.606,18.948c-0.465,0.19-0.703,0.708-0.546,1.185c0.027,0.082,0.062,0.15,0.092,0.227c0.103-0.177,0.252-0.328,0.454-0.411 l23.198-9.486c2.39-0.977,5.245-0.541,6.969,1.381c2.597,2.894,7.934,8.887,11.015,11.745C43.58,24.323,44,25.375,44,26.456v-1 C44,24.375,43.58,23.323,42.788,22.588z"/></g></svg>