<!DOCTYPE svg PUBLIC "-//W3C//DTD SVG 1.1//EN" "http://www.w3.org/Graphics/SVG/1.1/DTD/svg11.dtd">
<!-- Uploaded to: SVG Repo, www.svgrepo.com, Transformed by: SVG Repo Mixer Tools -->
<svg fill="#38bdf8" width="800px" height="800px" viewBox="0 0 24 24" xmlns="http://www.w3.org/2000/svg" xml:space="preserve" stroke="#38bdf8">
<g id="SVGRepo_bgCarrier" stroke-width="0"/>
<g id="SVGRepo_tracerCarrier" stroke-linecap="round" stroke-linejoin="round"/>
<g id="SVGRepo_iconCarrier">
<path fill-rule="evenodd" clip-rule="evenodd" d="M12 6.036c-2.667 0-4.333 1.325-5 3.976 1-1.325 2.167-1.822 3.5-1.491.761.189 1.305.738 1.906 1.345C13.387 10.855 14.522 12 17 12c2.667 0 4.333-1.325 5-3.976-1 1.325-2.166 1.822-3.5 1.491-.761-.189-1.305-.738-1.907-1.345-.98-.99-2.114-2.134-4.593-2.134zM7 12c-2.667 0-4.333 1.325-5 3.976 1-1.326 2.167-1.822 3.5-1.491.761.189 1.305.738 1.907 1.345.98.989 2.115 2.134 4.594 2.134 2.667 0 4.333-1.325 5-3.976-1 1.325-2.167 1.822-3.5 1.491-.761-.189-1.305-.738-1.906-1.345C10.613 13.145 9.478 12 7 12z"/>
</g>
</svg>